<?xml version="1.0" encoding="utf-8"?>
<!-- Generator: Adobe Illustrator 16.0.4, SVG Export Plug-In . SVG Version: 6.00 Build 0)  -->
<!DOCTYPE svg PUBLIC "-//W3C//DTD SVG 1.1//EN" "http://www.w3.org/Graphics/SVG/1.1/DTD/svg11.dtd">
<svg version="1.1" id="Layer_1" xmlns="http://www.w3.org/2000/svg" xmlns:xlink="http://www.w3.org/1999/xlink" x="0px" y="0px"
	 width="232.489px" height="323.984px" viewBox="0 0 232.489 323.984" enable-background="new 0 0 232.489 323.984"
	 xml:space="preserve">
<g id="Layer_3">
	<polygon fill="#1E1E1E" points="37.084,14.653 121.446,14.653 121.446,44.069 28.904,44.069 	"/>
	<polygon fill="#232323" points="194.154,14.653 201.904,44.069 119.404,44.069 119.404,14.653 	"/>
</g>
<g id="Layer_2">
	<polyline fill="#333333" points="25.404,70.986 58.404,308.403 119.404,308.403 170.404,308.403 203.404,70.986 	"/>
	<polyline fill="#282828" points="119.404,71.486 119.404,308.403 58.404,308.403 25.404,71.486 119.404,71.486 	"/>
	<g>
		<polyline fill="#141414" points="201.904,42.903 216.154,42.903 220.654,72.403 119.404,72.403 10.404,72.403 15.154,42.903 
			201.904,42.903 		"/>
		<polyline fill="#1C1C1C" points="119.202,42.903 216.154,42.903 220.654,72.403 119.404,72.403 119.404,42.903 		"/>
	</g>
</g>
<g id="Layer_5">
</g>
<g>
	<g>
		<defs>
			<rect id="SVGID_1_" x="54.109" y="83.069" width="120.589" height="189.154"/>
		</defs>
		<clipPath id="SVGID_2_">
			<use xlink:href="#SVGID_1_"  overflow="visible"/>
		</clipPath>
		<path clip-path="url(#SVGID_2_)" fill="none" stroke="#ECF0F1" stroke-width="2" stroke-miterlimit="10" d="M105.977,183.397
			v-65.445c0-7.222-3.602-12.018-12.963-12.018c-9.359,0-12.961,4.796-12.961,12.018v96.959"/>
		<path clip-path="url(#SVGID_2_)" fill="none" stroke="#FFFFFF" stroke-width="2" stroke-miterlimit="10" d="M153.108,193.9
			v-23.527c0-9.952-2.331-16.336-11.149-17.175c-7.465-0.708-11.155,2.266-11.155,2.266 M153.108,166.471
			c13.037-2.186,17.146,4.962,17.865,16.384c0.724,11.427,0.988,17.642,0.988,32.054c0,34.772-19.094,54.736-19.094,54.736"/>
		<path clip-path="url(#SVGID_2_)" fill="none" stroke="#ECF0F1" stroke-width="2" stroke-miterlimit="10" d="M78.949,174.353
			c-1.378-0.417-5.349-0.804-8.221-0.804c-6.498,0-11.381,5.138-12.37,14.328c0,0-1.293,9.539-1.496,22.04
			c-0.267,16.231,2.626,23.447,9.081,32.774c8.865,12.801,27.263,27.386,27.263,27.386 M131.898,185.829v-21.812
			c0-9.949-2.693-18.89-12.942-18.89c-8.705,0-12.947,2.269-12.947,2.269"/>
		<path clip-path="url(#SVGID_2_)" fill="none" stroke="#FCFC95" stroke-width="2" stroke-miterlimit="10" d="M63.11,115.71
			c0-16.517,13.388-29.905,29.903-29.905c16.517,0,29.905,13.388,29.905,29.905"/>
	</g>
</g>
</svg>
